<svg width="19" height="19" viewBox="0 0 19 19" fill="none" xmlns="http://www.w3.org/2000/svg">
<g clip-path="url(#clip0_789_1006)">
<path d="M16.8889 2.63889H2.11111C1.55121 2.63889 1.01424 2.86131 0.61833 3.25722C0.22242 3.65313 0 4.1901 0 4.75L0 14.25C0 14.8099 0.22242 15.3469 0.61833 15.7428C1.01424 16.1387 1.55121 16.3611 2.11111 16.3611H16.8889C17.4488 16.3611 17.9858 16.1387 18.3817 15.7428C18.7776 15.3469 19 14.8099 19 14.25V4.75C19 4.1901 18.7776 3.65313 18.3817 3.25722C17.9858 2.86131 17.4488 2.63889 16.8889 2.63889Z" fill="#006C35"/>
<path d="M4.70725 7.41528C5.0408 7.44694 4.85661 6.85108 4.97747 6.74289C5.00017 6.68958 5.04239 6.68905 5.04555 6.75661V7.26222C5.04239 7.42689 5.15058 7.47492 5.2345 7.50922C5.32211 7.50236 5.38017 7.50553 5.41447 7.5905L5.45564 8.46556C5.45564 8.46556 5.6583 8.52361 5.6678 7.97314C5.67783 7.65014 5.60342 7.37992 5.64722 7.31711C5.6488 7.25536 5.72744 7.25167 5.78233 7.28175C5.86942 7.34297 5.90847 7.41897 6.04358 7.38889C6.24994 7.33242 6.37344 7.23214 6.37661 7.0738C6.36447 6.92339 6.34758 6.77297 6.28267 6.62255C6.29164 6.59511 6.24308 6.52439 6.25205 6.49694C6.289 6.555 6.34547 6.55025 6.35814 6.49694C6.3233 6.38136 6.26894 6.27053 6.18028 6.2225C6.10744 6.15811 6.00083 6.1713 5.96178 6.30536C5.94383 6.45947 6.01772 6.64314 6.12961 6.7925C6.15336 6.85108 6.18714 6.94819 6.17236 7.03581C6.11272 7.06958 6.05255 7.05586 6.00294 7.00308C6.00294 7.00308 5.8388 6.88011 5.8388 6.85267C5.88261 6.574 5.84883 6.54233 5.82455 6.46528C5.80767 6.35867 5.757 6.32436 5.71583 6.25153C5.67467 6.20825 5.61925 6.20825 5.59286 6.25153C5.52003 6.37714 5.5538 6.64736 5.60658 6.76822C5.64405 6.87906 5.70211 6.94925 5.67467 6.94925C5.65197 7.01205 5.60553 6.99728 5.57175 6.92497C5.52319 6.77508 5.51369 6.55183 5.51369 6.45103C5.49892 6.32647 5.48308 6.05994 5.40128 5.99239C5.35114 5.9243 5.27672 5.95703 5.25086 6.01983C5.24558 6.14333 5.24453 6.26736 5.25878 6.38189C5.31472 6.58192 5.33267 6.75819 5.36011 6.9635C5.3675 7.23847 5.20125 7.08278 5.20864 6.94661C5.24717 6.7698 5.23714 6.49114 5.20283 6.42042C5.17592 6.35022 5.14372 6.33228 5.07828 6.34389C5.02655 6.33967 4.8925 6.48639 4.8545 6.72917C4.8545 6.72917 4.8223 6.85425 4.80858 6.96561C4.79011 7.09122 4.70778 7.17989 4.64972 6.94819C4.59958 6.77983 4.56897 6.36447 4.48505 6.46158C4.46078 6.78617 4.43175 7.35722 4.70725 7.41528Z" fill="white"/>
<path d="M5.20917 7.65225C4.93472 7.65753 4.53308 8.01272 4.522 8.20958C4.81122 8.07025 5.09569 7.93619 5.39019 7.79264C5.34269 7.72139 5.38755 7.65753 5.20917 7.65225Z" fill="white"/>
<path d="M6.72231 8.71678C6.8495 8.29297 6.70172 7.98053 6.77086 7.98211C6.91706 8.13992 7.12183 8.00322 7.1667 7.94833C7.18622 7.92089 7.23425 7.90294 7.26803 7.93883C7.38256 8.02117 7.58417 7.98211 7.62586 7.8375C7.65222 7.69226 7.66845 7.54536 7.67442 7.39786C7.581 7.42689 7.51133 7.44642 7.505 7.48494L7.48547 7.61055C7.47756 7.65119 7.39681 7.65278 7.39364 7.60105C7.35828 7.44008 7.21156 7.41897 7.12289 7.66861C7.06325 7.71717 6.95558 7.72667 6.94397 7.65436C6.95822 7.48705 6.89067 7.46436 6.75556 7.543C6.71228 7.21103 6.66847 6.89383 6.6252 6.56186C6.68167 6.56028 6.73339 6.60197 6.78458 6.53758C6.72811 6.36183 6.60883 6.00294 6.54286 5.97708C6.51067 5.93803 6.48322 5.9623 6.44153 5.97233C6.37081 5.99503 6.30483 6.05625 6.32542 6.175C6.40933 6.6843 6.46422 7.07222 6.54761 7.58153C6.56028 7.64117 6.51067 7.7198 6.44628 7.71189C6.33703 7.638 6.30958 7.48811 6.12275 7.49444C5.98711 7.49603 5.83247 7.64275 5.81347 7.78472C5.79078 7.89714 5.78286 8.01958 5.81347 8.11828C5.90847 8.23228 6.023 8.22119 6.12275 8.19533C6.20456 8.16155 6.27264 8.07922 6.30114 8.09875C6.32067 8.1225 6.30589 8.39325 5.91481 8.60119C5.67783 8.70728 5.48942 8.73155 5.38808 8.53839C5.32528 8.41753 5.39283 7.95836 5.2382 8.06497C4.78061 9.24455 6.30958 9.40817 6.48058 8.11353C6.49695 8.06022 6.56133 8.00692 6.57242 8.094C6.53706 9.26672 5.38967 9.34747 5.19492 8.97855C5.14636 8.89147 5.13211 8.6983 5.12736 8.58219C5.09833 8.35155 4.97747 8.44022 4.95847 8.66875C4.93895 8.79594 4.94422 8.83183 4.94422 8.95375C5.00492 9.88 6.4827 9.48205 6.72231 8.71678ZM6.15231 7.91561C6.14281 7.93355 6.10111 7.92617 6.0705 7.92617C6.03567 7.92458 6.01931 7.91878 5.99819 7.8908C5.98869 7.85914 6.01825 7.82905 6.03145 7.8053C6.04781 7.77733 6.13595 7.7483 6.16708 7.82642C6.17285 7.84124 6.17452 7.85734 6.17192 7.87304C6.16932 7.88873 6.16254 7.90344 6.15231 7.91561Z" fill="white"/>
<path d="M7.17883 6.86586C7.27067 6.83208 7.70608 6.33439 7.70608 6.33439C7.68339 6.31486 7.66333 6.30061 7.64064 6.28108C7.61636 6.25997 7.619 6.23886 7.64064 6.21828C7.74831 6.15547 7.714 6.01772 7.65753 5.95492C7.621 5.937 7.5808 5.92786 7.54011 5.92822C7.49943 5.92859 7.45939 5.93845 7.4232 5.95703C7.34772 6.02933 7.32978 6.14544 7.38942 6.21828C7.44747 6.24572 7.50553 6.3043 7.467 6.3365C7.28914 6.5265 6.80147 6.85425 6.85795 6.86586C6.87008 6.88169 7.16933 6.88117 7.17883 6.86586ZM7.50131 6.08422C7.52928 6.07736 7.56517 6.10217 7.58206 6.13911C7.59895 6.17605 7.58997 6.21142 7.56253 6.21828H7.56147C7.53403 6.22514 7.49814 6.20033 7.48125 6.16339C7.46489 6.12592 7.47386 6.09108 7.50131 6.08422ZM4.67717 9.10839C4.60539 9.25458 4.57531 9.1543 4.56897 9.0725C4.56072 8.93511 4.56763 8.79723 4.58956 8.66136C4.6075 8.54525 4.58956 8.58061 4.55261 8.62758C4.38953 8.88725 4.37528 9.27569 4.46553 9.39128C4.51303 9.44617 4.59167 9.47044 4.65025 9.4525C4.75264 9.40816 4.7975 9.20022 4.77322 9.12475C4.73839 9.07144 4.71147 9.063 4.67717 9.10839ZM10.0505 6.35972C10.2384 6.612 10.4168 6.86903 10.5914 7.1308C10.6258 7.35775 10.6506 7.57942 10.6653 7.7995C10.6944 8.22383 10.7028 8.683 10.6764 9.13003C10.7556 9.13319 10.8838 9.00125 10.9282 8.80861C10.9572 8.54208 10.9176 8.06761 10.915 7.91033C10.9115 7.81176 10.9067 7.71323 10.9007 7.61478C11.1087 7.95467 11.3113 8.31039 11.5093 8.70569C11.5816 8.67192 11.5657 8.26764 11.5235 8.21064C11.3652 7.87128 11.1472 7.53561 11.0775 7.40683C11.0517 7.35933 10.9635 7.22422 10.8585 7.06958C10.8495 6.94616 10.8347 6.82323 10.8142 6.70119C10.7814 6.4753 10.9076 6.726 10.8902 6.59458C10.8495 6.36869 10.7239 6.21617 10.5772 6.00928C10.5297 5.94225 10.5313 5.92853 10.4579 6.02564C10.432 6.08382 10.4201 6.14726 10.4231 6.21089C10.4002 6.17721 10.3757 6.14463 10.3497 6.11325C10.2701 6.04452 10.19 5.97626 10.1096 5.90847C10.0563 5.87047 9.92645 5.80186 9.90322 5.91586C9.89242 5.99577 9.89635 6.07698 9.91483 6.15547C9.92856 6.21194 10.0104 6.30589 10.0505 6.35972ZM10.441 6.34705C10.4511 6.39086 10.4616 6.43467 10.4685 6.47953L10.4764 6.52228C10.4543 6.49134 10.4312 6.46106 10.4073 6.4315C10.3207 6.32911 10.3925 6.35128 10.441 6.34705Z" fill="white"/>
<path d="M11.5684 8.81019C11.3847 9.00177 11.1198 9.23769 10.8316 9.34694C10.8004 9.38177 10.9086 9.53114 11.048 9.53114C11.2818 9.50369 11.4876 9.37227 11.6781 9.02658C11.7293 8.94636 11.8191 8.77377 11.8212 8.63972C11.8386 7.85544 11.7821 7.2448 11.6644 6.67797C11.6565 6.63249 11.6587 6.58583 11.6708 6.54127C11.6855 6.52333 11.7372 6.54127 11.7647 6.49694C11.8043 6.45577 11.6586 6.118 11.5752 5.98816C11.5457 5.93011 11.5356 5.89105 11.4866 5.99502C11.4348 6.07947 11.4005 6.22672 11.4047 6.36394C11.5161 7.13608 11.5504 7.81216 11.6233 8.5843C11.6291 8.65872 11.618 8.76744 11.5684 8.81019ZM14.6453 6.85214C14.6374 6.79725 14.6131 6.66952 14.6226 6.65316C14.6374 6.61411 14.7139 6.65739 14.7414 6.61252C14.7815 6.57189 14.544 6.26683 14.4611 6.137C14.431 6.07894 14.421 6.03989 14.3719 6.14386C14.3202 6.2283 14.3023 6.37977 14.3228 6.51277C14.4469 7.35141 14.5392 7.98158 14.5582 8.72522C14.5471 8.79594 14.545 8.83394 14.5118 8.92261C14.4384 9.01655 14.3577 9.13372 14.2811 9.19072C14.2051 9.24719 14.0431 9.30155 13.9898 9.34325C13.8225 9.44089 13.822 9.55225 13.9581 9.55594C14.1914 9.5285 14.468 9.5095 14.6585 9.22133C14.7097 9.14111 14.7704 8.92314 14.773 8.78908C14.7904 8.0048 14.763 7.41897 14.6453 6.85214ZM12.8767 7.505C12.8788 7.39733 12.8889 7.25483 12.8947 7.16564C12.8973 7.13239 12.9052 7.09491 12.9369 7.08647C12.9691 7.07802 13.0261 7.11919 13.0266 7.08436C13.0203 7.01627 13.0066 6.91494 12.968 6.86691C12.9152 6.7888 12.7754 6.8078 12.7506 6.93025C12.7511 6.97564 12.7717 6.99991 12.768 7.04108C12.7617 7.0643 12.7374 7.08014 12.6799 7.05269C12.6894 7.04425 12.6424 6.97933 12.6424 6.97933C12.5975 6.95189 12.5374 6.98091 12.4988 7.00572C12.4849 7.03233 12.4766 7.06152 12.4744 7.09149C12.4722 7.12145 12.4762 7.15154 12.4862 7.17989C12.5495 7.29969 12.7706 7.50289 12.8767 7.505Z" fill="white"/>
<path d="M12.8023 6.58719C12.9569 6.77666 13.1147 6.96877 13.2736 7.16405C13.3079 7.6 13.3169 7.95677 13.3507 8.39272C13.3459 8.57744 13.2889 8.73841 13.2346 8.76164C13.2346 8.76164 13.1527 8.80914 13.0979 8.75689C13.0577 8.74052 12.8978 8.49036 12.8978 8.49036C12.816 8.41541 12.7622 8.43652 12.7041 8.49036C12.5437 8.645 12.4714 8.93527 12.3627 9.13477C12.3342 9.17964 12.255 9.21764 12.1669 9.13161C11.9436 8.82602 12.0745 8.39166 12.0471 8.50355C11.8481 8.72786 11.9357 9.09889 11.9806 9.17911C12.046 9.31 12.0993 9.39444 12.227 9.45936C12.3431 9.54486 12.4339 9.49103 12.4835 9.43139C12.6007 9.30947 12.6023 9.00072 12.6572 8.93844C12.6952 8.82603 12.7928 8.84502 12.8398 8.89516C12.8828 8.95587 12.9398 9.0053 13.006 9.03925C13.1153 9.13583 13.2456 9.15325 13.3739 9.06511C13.4615 9.01602 13.519 8.95216 13.5702 8.82602C13.6272 8.67402 13.5961 7.97525 13.5845 7.55619C13.6663 7.66175 13.746 7.77205 13.8267 7.88236C13.8621 8.23228 13.8821 8.58061 13.8705 8.93633C13.8621 9.00758 14.1186 8.72522 14.1165 8.59116C14.1154 8.48297 14.1165 8.3848 14.1165 8.29244C14.24 8.47822 14.3603 8.6698 14.4733 8.87247C14.544 8.83553 14.5207 8.43705 14.4759 8.38216C14.3455 8.16366 14.1719 7.93619 14.0521 7.77364C14.0442 7.75305 14.0399 7.72983 14.0304 7.7103C13.9824 7.59894 14.0125 7.50922 13.9898 7.391C13.9676 7.27225 13.9734 7.09491 13.9391 6.954C13.9296 6.89911 13.9011 6.72283 13.9096 6.70647C13.9233 6.66689 13.9761 6.70752 14.0019 6.66214C14.0405 6.61991 13.8684 6.17394 13.7808 6.04622C13.7491 5.98922 13.6921 6.00875 13.6214 6.10164C13.5565 6.16286 13.5808 6.30219 13.6056 6.43466C13.6673 6.75555 13.7191 7.06325 13.7634 7.36777C13.6685 7.2416 13.5726 7.11616 13.4758 6.99147L13.4715 6.96825C13.4715 6.96244 13.4573 6.69169 13.4446 6.6273C13.4425 6.60144 13.4362 6.59352 13.4636 6.59669C13.4926 6.62097 13.4963 6.62255 13.5148 6.631C13.5444 6.63627 13.5702 6.58614 13.5528 6.54022L13.2799 6.03777C13.2583 6.01614 13.2298 5.99291 13.1955 6.04358C13.1742 6.06218 13.1571 6.08515 13.1455 6.11092C13.1338 6.13669 13.1278 6.16466 13.1279 6.19294C13.1364 6.31169 13.157 6.43308 13.1649 6.55236L13.1765 6.61675C13.1644 6.6025 13.1496 6.58455 13.1433 6.57822C12.9116 6.33439 13.2499 6.53864 13.0989 6.35022C12.9712 6.20983 12.9342 6.16602 12.8245 6.08158C12.7696 6.04622 12.7363 5.97866 12.7184 6.09372C12.7094 6.19461 12.7067 6.29597 12.7105 6.39719C12.7105 6.44575 12.7596 6.53441 12.8023 6.58719ZM8.10456 7.15666C8.23756 7.21155 8.32253 6.95822 8.37742 6.68061C8.41436 6.6025 8.44286 6.59405 8.46186 6.63416C8.45711 7.00361 8.48825 7.08541 8.58325 7.19783C8.79489 7.36144 8.97011 7.21841 8.98436 7.20469L9.14903 7.04002C9.18544 7.0015 9.23453 6.99886 9.28625 7.03316C9.33692 7.07855 9.33006 7.15772 9.43772 7.21261C9.5285 7.24902 9.72272 7.22105 9.76758 7.14294C9.82828 7.0395 9.84306 7.00361 9.8705 6.96455C9.91378 6.90702 9.98767 6.93289 9.98767 6.95083C9.98081 6.98302 9.93753 7.01522 9.96708 7.07275C10.0188 7.11127 10.0304 7.08647 10.061 7.07802C10.1687 7.0263 10.2489 6.79302 10.2489 6.79302C10.2537 6.70594 10.2051 6.71333 10.1734 6.73127C10.1323 6.75608 10.1296 6.76452 10.0885 6.78986C10.0357 6.79777 9.93383 6.83261 9.88369 6.7545C9.83197 6.66055 9.83092 6.52966 9.79186 6.43519C9.79186 6.42833 9.72325 6.28583 9.78711 6.27686C9.81931 6.28266 9.88739 6.30061 9.89847 6.24361C9.93172 6.18766 9.82617 6.02827 9.75439 5.94752C9.69158 5.87891 9.6045 5.87047 9.52058 5.94066C9.46147 5.99502 9.46992 6.05519 9.45831 6.11272C9.44872 6.15332 9.44874 6.19559 9.45836 6.23618C9.46798 6.27677 9.48693 6.31455 9.51372 6.34652C9.5723 6.46211 9.67944 6.61147 9.64408 6.82047C9.64408 6.82047 9.58181 6.91969 9.47256 6.90702C9.42717 6.897 9.35328 6.87747 9.31422 6.58719C9.28467 6.36711 9.32161 6.05941 9.22819 5.91533C9.19442 5.82825 9.17014 5.74433 9.08781 5.89316C9.06564 5.95175 8.97064 6.04041 9.03978 6.22355C9.09625 6.33914 9.11894 6.52755 9.09361 6.73761C9.05456 6.79725 9.04611 6.8173 8.99492 6.87694C8.92314 6.954 8.84556 6.93447 8.78592 6.90544C8.72997 6.86797 8.68669 6.84844 8.66136 6.72916C8.66611 6.53916 8.67667 6.22777 8.64183 6.1618C8.59064 6.05941 8.50619 6.09636 8.46978 6.1275C8.29614 6.28636 8.21064 6.55394 8.15839 6.76664C8.11036 6.9218 8.05917 6.87747 8.02328 6.81466C7.93567 6.73233 7.92986 6.09002 7.82378 6.19611C7.65331 6.6785 7.91983 7.20839 8.10456 7.15666Z" fill="white"/>
<path d="M10.6279 8.19322L10.5772 8.1642L9.58444 8.15945C9.53325 8.13992 9.54855 8.12303 9.58444 8.10931C9.82142 8.07711 10.2431 8.0085 10.2711 7.60369C10.2663 7.39311 10.1803 7.25483 9.92169 7.21683C9.73222 7.23161 9.59658 7.41581 9.61822 7.61794C9.60925 7.67283 9.63617 7.77944 9.58075 7.79158C9.21605 7.82483 8.81864 8.05283 8.80544 8.21645C8.78328 8.23175 8.73367 8.18742 8.74 8.11775C8.72243 7.81975 8.63666 7.52976 8.4893 7.27014C8.37425 7.15508 8.41014 7.19308 8.33308 7.24745C8.28347 7.30445 8.2745 7.3435 8.27714 7.45697C8.27714 7.46119 8.37003 7.72033 8.44867 7.90189C8.50092 8.0882 8.55 8.30089 8.51464 8.50197C8.39219 8.76797 8.14572 9.00653 7.90822 9.13583C7.78578 9.17542 7.68075 9.16117 7.65489 9.13372C7.57942 9.08306 7.58311 8.98964 7.58892 8.98806C7.78894 8.8482 8.018 8.73578 8.19744 8.35947C8.25022 8.21592 8.26605 8.12883 8.2138 7.90664C8.19929 7.82834 8.16329 7.75561 8.10983 7.69658C8.14203 7.67547 8.23439 7.74567 8.24864 7.70397C8.22188 7.58235 8.16133 7.47075 8.07394 7.38203C8.00269 7.31711 7.92511 7.30972 7.85967 7.36936C7.78578 7.41053 7.76994 7.55725 7.8053 7.68603C7.84436 7.78314 7.95044 7.7995 8.02644 7.99425C8.02644 7.99847 8.05389 8.13992 8.01483 8.19533C7.98369 8.29245 7.57994 8.60964 7.55778 8.62389C7.54669 8.63761 7.55144 8.61703 7.54986 8.56425C7.54722 8.49986 7.57572 8.34786 7.5678 8.34681C7.43639 8.43178 7.39258 8.69197 7.36883 8.76903C7.03633 8.99861 6.66003 9.16961 6.44258 9.40289C6.32911 9.5797 7.22264 9.1997 7.32661 9.15378C7.34983 9.17067 7.34719 9.25036 7.40947 9.32161C7.50236 9.44722 7.69869 9.52481 7.89133 9.47678C8.21328 9.36014 8.39958 9.14058 8.58853 8.89728C8.61544 8.8577 8.65767 8.82761 8.69672 8.8577C8.82655 9.1485 9.2018 9.35433 9.68578 9.37597C9.79819 9.23928 9.74383 9.17331 9.69844 9.14481C9.69844 9.14058 9.45936 9.04981 9.42294 8.95903C9.40078 8.8767 9.45461 8.80439 9.56228 8.7495C9.87314 8.71203 10.1787 8.67033 10.4748 8.57533C10.478 8.47611 10.5355 8.32728 10.5751 8.26289C10.6131 8.19745 10.6337 8.21697 10.6279 8.19322ZM9.81139 7.57467C9.82617 7.54986 9.87525 7.55092 9.92117 7.57783C9.96708 7.60422 9.99294 7.64644 9.97764 7.67125C9.96286 7.69658 9.91325 7.695 9.86733 7.66808C9.82142 7.6417 9.79661 7.6 9.81139 7.57467ZM9.41186 8.57745C9.30525 8.61386 9.20286 8.64236 9.20286 8.79647C9.24244 9.01075 9.1485 8.93739 9.09308 8.90783C9.02764 8.86086 8.84344 8.74739 8.81705 8.5025C8.81283 8.44392 8.85875 8.39483 8.93211 8.39483C9.04242 8.42492 9.2055 8.42703 9.34694 8.44181C9.46253 8.4492 9.52005 8.53997 9.41186 8.57745ZM5.73483 6.19981C5.84883 6.25469 6.06417 6.23147 6.05467 6.04675C6.05467 6.03039 6.05044 5.9755 6.04886 5.96072C6.02564 5.90636 5.9623 5.91956 5.94753 5.97603C5.94278 5.9945 5.95544 6.02406 5.93908 6.03356C5.92958 6.04306 5.89317 6.03725 5.89475 5.98658C5.89475 5.97022 5.88261 5.95281 5.87575 5.94278C5.86836 5.93803 5.86414 5.93645 5.85094 5.93645C5.83511 5.93697 5.83511 5.94119 5.82667 5.95492C5.82297 5.96811 5.81769 5.98183 5.81769 5.99714C5.81558 6.01508 5.80872 6.02142 5.79553 6.02458C5.78075 6.02458 5.78392 6.02617 5.7723 6.01825C5.76492 6.01033 5.75594 6.00717 5.75594 5.99397C5.7559 5.97855 5.75341 5.96323 5.74855 5.94858C5.74222 5.94014 5.73219 5.93644 5.72058 5.93328C5.6583 5.93328 5.65408 6.00453 5.65778 6.03197C5.65197 6.03672 5.64986 6.16444 5.73483 6.19981Z" fill="white"/>
<path d="M9.24245 7.40314C9.24245 7.38678 9.23031 7.36989 9.22345 7.35933C9.21606 7.35458 9.21184 7.353 9.19864 7.353C9.18281 7.35353 9.18334 7.35775 9.17436 7.37147C9.17067 7.38519 9.16539 7.39839 9.16539 7.41369C9.16381 7.43217 9.15642 7.4385 9.14322 7.44114C9.12845 7.44114 9.13161 7.44272 9.11947 7.43533C9.11209 7.42742 9.10311 7.42425 9.10311 7.41105C9.10311 7.39563 9.10062 7.3803 9.09572 7.36567C9.08939 7.35722 9.07936 7.35353 9.06775 7.35089C9.00547 7.35089 9.00125 7.42214 9.00442 7.44905C8.99967 7.45433 8.99703 7.58153 9.082 7.61742C9.19653 7.67178 9.46833 7.64011 9.40183 7.46436C9.40072 7.43546 9.39879 7.4066 9.39603 7.3778C9.37281 7.32344 9.30895 7.33717 9.2947 7.39311C9.29047 7.41158 9.30314 7.44114 9.28625 7.45064C9.27781 7.46014 9.24086 7.45433 9.24245 7.40314ZM11.0353 7.03C11.1493 7.08489 11.3641 7.06167 11.3546 6.87747C11.3535 6.84857 11.3516 6.81971 11.3488 6.79092C11.3256 6.73655 11.2623 6.75028 11.248 6.80622C11.2433 6.82469 11.2559 6.85425 11.239 6.86375C11.2295 6.87325 11.1931 6.86797 11.1947 6.81678C11.1947 6.80042 11.1826 6.783 11.1757 6.77297C11.1683 6.76822 11.1641 6.76664 11.1504 6.76664C11.1345 6.76769 11.1351 6.77139 11.1261 6.78511C11.1224 6.79883 11.1171 6.81203 11.1171 6.82733C11.115 6.8458 11.1081 6.85214 11.0949 6.85478C11.0802 6.85478 11.0833 6.85636 11.0712 6.84897C11.0638 6.84105 11.0554 6.83789 11.0554 6.82469C11.0553 6.8091 11.0528 6.7936 11.048 6.77878C11.0411 6.77033 11.0316 6.76664 11.0195 6.764C10.9572 6.764 10.953 6.83525 10.9567 6.86217C10.953 6.86744 10.9503 6.99464 11.0353 7.03ZM11.1124 6.31644C11.153 6.43044 11.0812 6.53917 11.124 6.555C11.1625 6.57294 11.2174 6.4373 11.2374 6.31222C11.2612 6.21089 11.1889 6.00347 11.0865 5.96072C11.0242 5.94594 10.9356 5.98289 10.9641 6.06628C10.9498 6.10639 11.0897 6.24255 11.1124 6.31644ZM12.1653 8.98911C12.245 8.98964 12.3368 8.80703 12.3759 8.626C12.3975 8.37689 12.3611 8.22542 12.3548 8.07869C12.3479 7.9325 12.1896 6.81625 12.1568 6.70542C12.1183 6.49589 12.3115 6.67744 12.2904 6.55553C12.2233 6.40194 12.0571 6.17869 12.0043 6.04517C11.9726 5.98817 11.9864 5.9375 11.9156 6.03039C11.8507 6.24414 11.828 6.4183 11.8528 6.5513C12.0207 7.42742 12.1927 8.15575 12.1653 8.98911ZM14.1476 6.69855C14.1661 6.75555 14.1196 6.93975 14.1582 6.95664C14.1935 6.97564 14.2431 6.82944 14.2616 6.6938C14.2716 6.61939 14.2173 6.35972 14.1239 6.31328C14.0669 6.29744 13.9861 6.33703 14.0125 6.4278C13.9993 6.47161 14.127 6.61833 14.1476 6.69855ZM7.2237 8.62811C7.258 8.64236 7.30497 8.53469 7.32292 8.43494C7.33295 8.38005 7.28017 8.18953 7.19097 8.15522C7.13609 8.14361 7.06114 8.15839 7.08436 8.23967C7.08172 8.28347 7.20575 8.33625 7.21314 8.43811C7.23109 8.48033 7.18675 8.61597 7.2237 8.62811ZM4.81914 6.19242C4.83656 6.23622 4.80172 6.37608 4.83814 6.38928C4.87139 6.40405 4.91836 6.29217 4.93578 6.18925C4.94581 6.13225 4.93789 5.93908 4.80595 5.8995C4.75159 5.88736 4.67611 5.91744 4.70092 5.98658C4.68825 6.0193 4.79961 6.13119 4.81914 6.19242ZM7.40631 6.8115C7.3055 6.86639 7.26592 7.02894 7.32925 7.12342C7.38784 7.20733 7.48072 7.17619 7.49339 7.17619C7.59261 7.18833 7.6512 6.99042 7.6512 6.99042C7.6512 6.99042 7.65436 6.935 7.53667 7.04003C7.48706 7.04953 7.48072 7.03105 7.46859 7.00255C7.45657 6.9509 7.46195 6.89672 7.48389 6.84844C7.50078 6.79936 7.46278 6.77772 7.40631 6.8115ZM8.16736 6.20297C8.18363 6.19292 8.19759 6.17954 8.20832 6.16371C8.21906 6.14789 8.22632 6.12997 8.22964 6.11114C8.24495 6.03408 8.14784 6.14755 8.1357 6.06153C8.11406 5.98183 8.17634 5.94911 8.23545 5.87205C8.23756 5.81875 8.2365 5.78128 8.1642 5.82455C8.11353 5.85886 8.0122 5.96336 8.00903 6.08369C8.00586 6.15178 7.9932 6.15125 8.03806 6.19453C8.07025 6.2415 8.10245 6.23675 8.16736 6.20297ZM8.85295 6.24414C8.91839 6.0668 8.91839 5.99186 8.92314 5.91639C8.90309 5.80186 8.8255 5.80555 8.77431 5.93275C8.75214 5.98078 8.72628 6.23358 8.7305 6.23358C8.71309 6.30905 8.80914 6.34125 8.85295 6.24414ZM13.1649 7.50183C13.1649 7.50183 12.6355 7.87814 12.6229 7.89133C12.5701 7.93778 12.5965 8.10244 12.6229 8.08344C12.6603 8.09822 13.1929 7.73669 13.1823 7.69447C13.2071 7.69553 13.2193 7.48283 13.1649 7.50183ZM13.1 8.52255C13.1353 8.54155 13.2288 8.42597 13.2251 8.28189C13.2356 8.20747 13.1981 7.93461 13.1053 7.88817C13.0483 7.87233 12.9723 7.92089 12.9986 8.01114C12.9854 8.05442 13.0641 8.20589 13.0847 8.28611C13.1031 8.34364 13.0614 8.50567 13.1 8.52255ZM10.1022 9.31211C10.1022 9.31686 10.1471 9.35539 10.1998 9.32478C10.3107 9.28203 10.3803 9.24086 10.5355 9.20655C10.5761 9.20603 10.5735 9.09678 10.5091 9.09308C10.4252 9.0973 10.3471 9.10153 10.2632 9.16803C10.2114 9.17964 10.203 9.1485 10.1914 9.12C10.1787 9.0498 10.2204 9.00125 10.2114 8.949C10.2146 8.95217 10.1634 8.90519 10.1112 8.93158C10.1085 8.93158 9.99453 9.00864 9.95811 9.06247C9.93542 9.07989 9.93806 9.09467 9.94492 9.12369C9.96234 9.1638 9.99347 9.15167 10.0283 9.13267C10.0748 9.12633 10.0969 9.15694 10.0932 9.21236C10.0711 9.28255 10.1022 9.30842 10.1022 9.31211ZM13.5597 9.39972C13.5423 9.4298 13.5306 9.47519 13.5845 9.48944C13.6837 9.51742 13.9122 9.36858 13.9122 9.36594C13.9492 9.33797 13.937 9.28572 13.9339 9.28572C13.9122 9.26092 13.8637 9.27517 13.8309 9.27147C13.8156 9.27147 13.7639 9.26355 13.7887 9.21817C13.8062 9.1937 13.82 9.16686 13.8299 9.13847C13.8452 9.10417 13.832 9.08147 13.7761 9.063C13.7196 9.05244 13.6969 9.05772 13.6341 9.063C13.6003 9.07039 13.5887 9.08517 13.5824 9.12633C13.585 9.18861 13.6225 9.18544 13.6615 9.21025C13.6842 9.23928 13.699 9.26567 13.6599 9.31264C13.623 9.34694 13.5971 9.36594 13.5597 9.39972ZM13.4583 12.1389H12.6667V11.875C12.6667 11.805 12.6389 11.7379 12.5894 11.6884C12.5399 11.6389 12.4728 11.6111 12.4028 11.6111C12.3328 11.6111 12.2657 11.6389 12.2162 11.6884C12.1667 11.7379 12.1389 11.805 12.1389 11.875V12.1389H5.80556C5.80556 12.1389 5.80556 12.6667 7.38889 12.6667H12.1389V12.9306C12.1389 13.0005 12.1667 13.0677 12.2162 13.1172C12.2657 13.1666 12.3328 13.1944 12.4028 13.1944C12.4728 13.1944 12.5399 13.1666 12.5894 13.1172C12.6389 13.0677 12.6667 13.0005 12.6667 12.9306V12.6667H13.1944V12.9306C13.1944 13.0005 13.2222 13.0677 13.2717 13.1172C13.3212 13.1666 13.3883 13.1944 13.4583 13.1944C13.5283 13.1944 13.5954 13.1666 13.6449 13.1172C13.6944 13.0677 13.7222 13.0005 13.7222 12.9306V12.4028C13.7222 12.3328 13.6944 12.2657 13.6449 12.2162C13.5954 12.1667 13.5283 12.1389 13.4583 12.1389Z" fill="white"/>
</g>
<defs>
<clipPath id="clip0_789_1006">
<rect width="19" height="19" fill="white"/>
</clipPath>
</defs>
</svg>
