<svg width="18" height="14" viewBox="0 0 18 14" fill="none" xmlns="http://www.w3.org/2000/svg">
<path fill-rule="evenodd" clip-rule="evenodd" d="M0 0.25V13.75H18V0.25H0Z" fill="#2E42A5"/>
<mask id="mask0_789_1018" style="mask-type:luminance" maskUnits="userSpaceOnUse" x="0" y="0" width="18" height="14">
<path fill-rule="evenodd" clip-rule="evenodd" d="M0 0.25V13.75H18V0.25H0Z" fill="white"/>
</mask>
<g mask="url(#mask0_789_1018)">
<path d="M-2.00419 12.7853L1.95694 14.461L18.0894 2.07137L20.1791 -0.41825L15.9435 -0.977938L9.36337 4.36075L4.06687 7.9585L-2.00419 12.7853Z" fill="white"/>
<path d="M-1.4625 13.9592L0.556311 14.9312L19.4287 -0.649439H16.5954L-1.4625 13.9592Z" fill="#F50100"/>
<path d="M20.0042 12.7853L16.0431 14.461L-0.0894353 2.07137L-2.17912 -0.41825L2.0565 -0.977938L8.63663 4.36075L13.9331 7.9585L20.0042 12.7853Z" fill="white"/>
<path d="M19.8692 13.6279L17.8509 14.5999L9.81506 7.92869L7.43231 7.18394L-2.3805 -0.409813H0.453374L10.26 7.00394L12.8649 7.89719L19.8692 13.6279Z" fill="#F50100"/>
<path fill-rule="evenodd" clip-rule="evenodd" d="M11.1251 -0.875H6.87488V4.75H-1.10925V9.25H6.87488V14.875H11.1251V9.25H19.1408V4.75H11.1251V-0.875Z" fill="#F50100"/>
<mask id="mask1_789_1018" style="mask-type:luminance" maskUnits="userSpaceOnUse" x="-2" y="-1" width="22" height="16">
<path fill-rule="evenodd" clip-rule="evenodd" d="M11.1251 -0.875H6.87488V4.75H-1.10925V9.25H6.87488V14.875H11.1251V9.25H19.1408V4.75H11.1251V-0.875Z" fill="white"/>
</mask>
<g mask="url(#mask1_789_1018)">
<path d="M6.87488 -0.875V-2H5.74988V-0.875H6.87488ZM11.1251 -0.875H12.2501V-2H11.1251V-0.875ZM6.87488 4.75V5.875H7.99988V4.75H6.87488ZM-1.10925 4.75V3.625H-2.23425V4.75H-1.10925ZM-1.10925 9.25H-2.23425V10.375H-1.10925V9.25ZM6.87488 9.25H7.99988V8.125H6.87488V9.25ZM6.87488 14.875H5.74988V16H6.87488V14.875ZM11.1251 14.875V16H12.2501V14.875H11.1251ZM11.1251 9.25V8.125H10.0001V9.25H11.1251ZM19.1408 9.25V10.375H20.2658V9.25H19.1408ZM19.1408 4.75H20.2658V3.625H19.1408V4.75ZM11.1251 4.75H10.0001V5.875H11.1251V4.75ZM6.87488 0.25H11.1251V-2H6.87488V0.25ZM7.99988 4.75V-0.875H5.74988V4.75H7.99988ZM-1.10925 5.875H6.87488V3.625H-1.10925V5.875ZM0.0157509 9.25V4.75H-2.23425V9.25H0.0157509ZM6.87488 8.125H-1.10925V10.375H6.87488V8.125ZM7.99988 14.875V9.25H5.74988V14.875H7.99988ZM11.1251 13.75H6.87488V16H11.1251V13.75ZM10.0001 9.25V14.875H12.2501V9.25H10.0001ZM19.1408 8.125H11.1251V10.375H19.1408V8.125ZM18.0158 4.75V9.25H20.2658V4.75H18.0158ZM11.1251 5.875H19.1408V3.625H11.1251V5.875ZM10.0001 -0.875V4.75H12.2501V-0.875H10.0001Z" fill="white"/>
</g>
</g>
</svg>
