<svg width="21" height="19" viewBox="0 0 21 19" fill="none" xmlns="http://www.w3.org/2000/svg">
<path d="M4.67189 0C2.87788 0 1.40157 1.47632 1.40157 3.27032C1.40157 4.13929 1.75663 4.93351 2.33594 5.52217C0.906346 6.45654 0 8.05433 0 9.81096C0 12.6421 2.30791 14.95 5.13907 14.95C6.78358 14.95 8.40939 14.5202 9.81096 13.698L8.87658 12.0815C7.73664 12.7356 6.4472 13.0813 5.13907 13.0813C3.32638 13.0813 1.86875 11.633 1.86875 9.81096C1.8671 9.09128 2.10356 8.39126 2.5413 7.82001C2.97903 7.24875 3.59345 6.83835 4.28879 6.65276L9.15689 5.34464L8.67102 3.54129L4.51304 4.67188C3.81226 4.57845 3.27032 3.99913 3.27032 3.27032C3.27032 2.48544 3.88701 1.86875 4.67189 1.86875C4.91482 1.86875 5.13907 1.93416 5.37267 2.05563L6.30704 0.439157C5.81183 0.1495 5.24186 0 4.67189 0Z" fill="#777E90"/>
<path fill-rule="evenodd" clip-rule="evenodd" d="M14.7559 5.60626C14.9307 5.60624 15.1016 5.65916 15.2471 5.75834C15.3926 5.85752 15.5061 5.99853 15.5734 6.16361L18.8869 14.3019L18.9024 14.34L20.0015 17.0393C20.0877 17.2604 20.0854 17.5072 19.9952 17.7265C19.905 17.9459 19.7341 18.1201 19.5195 18.2116C19.3048 18.3032 19.0636 18.3046 18.8479 18.2156C18.6322 18.1267 18.4593 17.9545 18.3666 17.7362L17.4868 15.5752H12.0251L11.1453 17.7367C11.0548 17.9585 10.882 18.1345 10.6647 18.226C10.4475 18.3174 10.2037 18.3168 9.98686 18.2243C9.77006 18.1317 9.59807 17.9548 9.50871 17.7325C9.41936 17.5102 9.41996 17.2607 9.51039 17.0389L10.6095 14.34C10.6143 14.327 10.6195 14.3142 10.625 14.3015L13.9385 6.16407C14.0057 5.9989 14.1192 5.85779 14.2647 5.75853C14.4102 5.65926 14.5811 5.60628 14.7559 5.60626ZM12.7633 13.7627H16.7486L14.7559 8.86883L12.7633 13.7627Z" fill="#777E90"/>
</svg>
